{
  "accessors": [
    {
      "bufferView": 2,
      "componentType": 5126,
      "count": 22631,
      "max": [
        0.470636785030365,
        0.22952304780483246,
        1.5681573152542114
      ],
      "min": [
        -0.47068342566490173,
        -0.15169960260391235,
        0.14845597743988037
      ],
      "type": "VEC3"
    },
    {
      "bufferView": 2,
      "byteOffset": 271572,
      "componentType": 5126,
      "count": 22631,
      "max": [
        0.9995023608207703,
        0.9999914765357971,
        0.9932460188865662
      ],
      "min": [
        -0.9994586110115051,
        -0.9999918341636658,
        -0.9991862177848816
      ],
      "type": "VEC3"
    },
    {
      "bufferView": 3,
      "componentType": 5126,
      "count": 22631,
      "max": [
        0.9999995827674866,
        0.9999905824661255,
        0.9998651742935181,
        1.0
      ],
      "min": [
        -0.9999998211860657,
        -0.9999880790710449,
        -0.9997296929359436,
        -1.0
      ],
      "type": "VEC4"
    },
    {
      "bufferView": 1,
      "componentType": 5126,
      "count": 22631,
      "max": [
        0.9917216300964355,
        0.9918624758720398
      ],
      "min": [
        0.00813752505928278,
        0.008137505501508713
      ],
      "type": "VEC2"
    },
    {
      "bufferView": 1,
      "byteOffset": 181048,
      "componentType": 5126,
      "count": 22631,
      "max": [
        0.9917216300964355,
        0.9918624758720398
      ],
      "min": [
        0.00813752505928278,
        0.008137505501508713
      ],
      "type": "VEC2"
    },
    {
      "bufferView": 1,
      "byteOffset": 362096,
      "componentType": 5126,
      "count": 22631,
      "max": [
        0.9917216300964355,
        0.9918624758720398
      ],
      "min": [
        0.00813752505928278,
        0.008137505501508713
      ],
      "type": "VEC2"
    },
    {
      "bufferView": 0,
      "componentType": 5125,
      "count": 98640,
      "type": "SCALAR"
    }
  ],
  "asset": {
    "extras": {
      "author": "sui (https://sketchfab.com/jjosh.wwashington)",
      "license": "CC-BY-4.0 (http://creativecommons.org/licenses/by/4.0/)",
      "source": "https://sketchfab.com/3d-models/long-leather-coat-764454f39058428aa156b12020df27d1",
      "title": "Long Leather Coat"
    },
    "generator": "Sketchfab-16.14.0",
    "version": "2.0"
  },
  "bufferViews": [
    {
      "buffer": 0,
      "byteLength": 394560,
      "name": "floatBufferViews",
      "target": 34963
    },
    {
      "buffer": 0,
      "byteLength": 543144,
      "byteOffset": 394560,
      "byteStride": 8,
      "name": "floatBufferViews",
      "target": 34962
    },
    {
      "buffer": 0,
      "byteLength": 543144,
      "byteOffset": 937704,
      "byteStride": 12,
      "name": "floatBufferViews",
      "target": 34962
    },
    {
      "buffer": 0,
      "byteLength": 362096,
      "byteOffset": 1480848,
      "byteStride": 16,
      "name": "floatBufferViews",
      "target": 34962
    }
  ],
  "buffers": [
    {
      "byteLength": 1842944,
      "uri": "scene.bin"
    }
  ],
  "images": [
    {
      "uri": "textures/Material.001_baseColor.png"
    },
    {
      "uri": "textures/Material.001_metallicRoughness.png"
    },
    {
      "uri": "textures/Material.001_normal.png"
    }
  ],
  "materials": [
    {
      "doubleSided": true,
      "name": "Material.001",
      "normalTexture": {
        "index": 2,
        "scale": 0.6746635425227462
      },
      "occlusionTexture": {
        "index": 1
      },
      "pbrMetallicRoughness": {
        "baseColorTexture": {
          "index": 0
        },
        "metallicRoughnessTexture": {
          "index": 1
        },
        "roughnessFactor": 0.8087219570197065
      }
    }
  ],
  "meshes": [
    {
      "name": "Coat_Material.001_0",
      "primitives": [
        {
          "attributes": {
            "NORMAL": 1,
            "POSITION": 0,
            "TANGENT": 2,
            "TEXCOORD_0": 3,
            "TEXCOORD_1": 4,
            "TEXCOORD_2": 5
          },
          "indices": 6,
          "material": 0,
          "mode": 4
        }
      ]
    }
  ],
  "nodes": [
    {
      "children": [
        1
      ],
      "matrix": [
        1.0,
        0.0,
        0.0,
        0.0,
        0.0,
        2.220446049250313e-16,
        -1.0,
        0.0,
        0.0,
        1.0,
        2.220446049250313e-16,
        0.0,
        0.0,
        0.0,
        0.0,
        1.0
      ],
      "name": "Sketchfab_model"
    },
    {
      "children": [
        2
      ],
      "matrix": [
        0.009999999776482582,
        0.0,
        0.0,
        0.0,
        0.0,
        0.0,
        0.009999999776482582,
        0.0,
        0.0,
        -0.009999999776482582,
        0.0,
        0.0,
        0.0,
        0.0,
        0.0,
        1.0
      ],
      "name": "coat_.fbx"
    },
    {
      "children": [
        3
      ],
      "name": "RootNode"
    },
    {
      "children": [
        4
      ],
      "matrix": [
        100.0,
        0.0,
        0.0,
        0.0,
        -0.0,
        -1.629206793918314e-05,
        -99.99999999999868,
        0.0,
        0.0,
        99.99999999999868,
        -1.629206793918314e-05,
        0.0,
        -0.2540384531021118,
        0.0,
        0.0,
        1.0
      ],
      "name": "Coat"
    },
    {
      "mesh": 0,
      "name": "Coat_Material.001_0"
    }
  ],
  "samplers": [
    {
      "magFilter": 9729,
      "minFilter": 9987,
      "wrapS": 10497,
      "wrapT": 10497
    }
  ],
  "scene": 0,
  "scenes": [
    {
      "name": "Sketchfab_Scene",
      "nodes": [
        0
      ]
    }
  ],
  "textures": [
    {
      "sampler": 0,
      "source": 0
    },
    {
      "sampler": 0,
      "source": 1
    },
    {
      "sampler": 0,
      "source": 2
    }
  ]
}
